<svg width="202" height="48" viewBox="0 0 202 48" fill="none" xmlns="http://www.w3.org/2000/svg">
<path fill-rule="evenodd" clip-rule="evenodd" d="M24.1666 10.8047C31.8583 10.8045 38.0568 16.8229 38.0623 24.297C38.068 31.7309 31.8518 37.7944 24.2219 37.7977C16.5024 37.801 10.303 31.7755 10.3074 24.2734C10.3116 16.8242 16.5054 10.805 24.1666 10.8047ZM30.3839 19.9873C30.6952 20.1591 30.8705 20.2501 31.0399 20.3505C31.3153 20.5138 31.5657 20.5875 31.779 20.2536C32.0055 19.899 31.779 19.7579 31.5015 19.6049C28.721 18.072 25.7682 17.2849 22.5489 17.624C20.5168 17.8382 18.639 18.4842 16.9013 19.5211C16.647 19.6729 16.3161 19.8095 16.5754 20.209C16.8388 20.615 17.1113 20.4182 17.3958 20.2411C17.5535 20.1429 17.7232 20.063 17.9875 19.9212C17.8818 20.1729 17.8254 20.3152 17.7629 20.455C16.588 23.0846 15.4132 25.714 14.2365 28.3428C13.8333 29.2434 13.9838 29.7305 14.8601 30.2405C15.1219 30.3928 15.4051 30.5229 15.6945 30.616C17.4838 31.1916 19.2891 31.1774 21.0998 30.7159C21.5219 30.6083 21.9176 30.4317 22.2865 30.2053C23.0815 29.7177 23.2276 29.2161 22.8512 28.3763C21.5866 25.555 20.3358 22.7276 19.0562 19.9128C18.8808 19.527 18.9881 19.4165 19.3481 19.2813C22.5576 18.0762 25.7485 18.149 28.9432 19.3416C29.3812 19.5051 29.4108 19.6782 29.2335 20.068C28.0048 22.7697 26.7997 25.4815 25.5866 28.19C25.0891 29.301 25.2873 29.8622 26.4161 30.3888C27.8154 31.0417 29.3086 31.1297 30.8244 30.9955C31.7861 30.9103 32.7248 30.7238 33.5583 30.2101C34.357 29.7181 34.511 29.2153 34.1373 28.3842C33.536 27.0469 32.9375 25.7083 32.3392 24.3698C31.7071 22.9548 31.0764 21.5394 30.3839 19.9873Z" fill="#02A750"/>
<path fill-rule="evenodd" clip-rule="evenodd" d="M24.1337 47.7881C17.1936 47.6972 11.283 45.2416 6.5214 40.3381C2.68965 36.3924 0.559628 31.6582 0.0924048 26.2368C0.0500981 25.7462 0.0482492 25.2524 0.00365854 24.762C-0.0202682 24.4992 0.0713058 24.433 0.333303 24.4391C1.03871 24.4557 1.7452 24.4562 2.4506 24.4377C2.78742 24.4289 2.72053 24.6397 2.72652 24.8237C2.78622 26.6797 3.05953 28.5064 3.61811 30.2816C4.65784 33.5862 6.41569 36.4841 8.92429 38.9424C11.6761 41.6391 14.9335 43.5057 18.7171 44.4565C22.7558 45.4714 26.7809 45.3911 30.7608 44.1291C35.6278 42.5858 39.4618 39.7165 42.2312 35.543C44.6761 31.8582 45.7885 27.8027 45.5969 23.4129C45.3704 18.2173 43.3962 13.7151 39.7412 9.96113C36.1114 6.2331 31.6182 4.0824 26.3375 3.56546C21.9616 3.1371 17.8312 3.93559 13.9638 5.97669C13.6659 6.13396 13.4846 6.13364 13.3072 5.83401C13.0004 5.31592 12.6871 4.79962 12.3431 4.30445C12.1349 4.00493 12.215 3.86679 12.5139 3.70519C14.3453 2.71529 16.281 1.97651 18.3106 1.49149C22.0667 0.593967 25.8449 0.548097 29.6154 1.39563C34.3088 2.45064 38.3451 4.66898 41.658 8.06768C45.7771 12.2935 48.0196 17.3284 48.3136 23.1535C48.6007 28.841 46.9757 33.9881 43.4278 38.504C39.6111 43.3619 34.5616 46.3401 28.3564 47.4382C26.9609 47.6855 25.5556 47.7877 24.1337 47.7881Z" fill="#BAD333"/>
<path fill-rule="evenodd" clip-rule="evenodd" d="M24.2332 6.04605C31.1355 6.27286 36.4981 9.1559 40.2483 14.8335C40.4565 15.1486 40.4205 15.3016 40.0851 15.4804C39.6103 15.7337 39.1453 16.0146 38.714 16.332C38.3246 16.6184 38.1207 16.5975 37.8523 16.1632C36.5327 14.0283 34.7549 12.325 32.5818 11.0053C26.6127 7.38029 18.6157 8.0918 13.4266 12.739C9.7156 16.0626 7.95808 20.1987 8.15645 25.0945C8.45401 32.4455 14.3899 38.8169 21.9095 39.709C28.7468 40.5203 34.0682 37.9985 37.8594 32.4223C38.0389 32.1581 38.1519 32.0904 38.4369 32.2894C38.9508 32.6486 39.4842 32.9847 40.0305 33.2956C40.3556 33.4805 40.3271 33.6459 40.1472 33.9164C37.1514 38.4217 32.9754 41.2798 27.5355 42.2359C19.1179 43.7153 11.0073 39.6568 7.2306 32.1762C2.87463 23.5484 6.52943 12.6976 15.2968 8.2143C18.0909 6.78557 21.0537 6.03358 24.2332 6.04605Z" fill="#74BC46"/>
<path fill-rule="evenodd" clip-rule="evenodd" d="M30.3839 19.9882C31.0764 21.5404 31.7071 22.9557 32.3393 24.3705C32.9375 25.7091 33.536 27.0477 34.1374 28.385C34.511 29.216 34.357 29.7189 33.5583 30.2109C32.7249 30.7245 31.7861 30.9111 30.8245 30.9963C29.3086 31.1305 27.8155 31.0425 26.4162 30.3896C25.2874 29.8631 25.0892 29.3018 25.5867 28.1907C26.7998 25.4823 28.0048 22.7705 29.2336 20.0688C29.4109 19.679 29.3813 19.5059 28.9433 19.3424C25.7486 18.1498 22.5578 18.0769 19.3482 19.2821C18.9881 19.4171 18.8808 19.5277 19.0563 19.9136C20.3359 22.7284 21.5866 25.5558 22.8512 28.3771C23.2275 29.2168 23.0816 29.7184 22.2866 30.2061C21.9177 30.4324 21.522 30.609 21.0999 30.7166C19.2892 31.1781 17.4837 31.1924 15.6946 30.6168C15.405 30.5237 15.1219 30.3937 14.8602 30.2412C13.9839 29.7313 13.8334 29.2442 14.2366 28.3436C15.4133 25.7148 16.5881 23.0853 17.763 20.4558C17.8254 20.316 17.8819 20.1737 17.9876 19.922C17.7233 20.0639 17.5536 20.1438 17.3959 20.2418C17.1112 20.4191 16.8389 20.6158 16.5755 20.2098C16.3162 19.8104 16.6471 19.6736 16.9013 19.5219C18.6391 18.4848 20.5169 17.839 22.549 17.6248C25.7682 17.2857 28.721 18.0727 31.5016 19.6057C31.7791 19.7586 32.0056 19.8997 31.7791 20.2544C31.5658 20.5883 31.3154 20.5146 31.0399 20.3513C30.8705 20.251 30.6952 20.1599 30.3839 19.9882ZM18.5783 20.7856C18.5052 20.8532 18.4681 20.8723 18.455 20.9017C17.4082 23.2352 16.367 25.5712 15.3139 27.9021C15.156 28.2516 15.3501 28.2353 15.5993 28.2346C17.3717 28.2305 19.1443 28.2322 20.9168 28.232C21.2191 28.232 21.5215 28.232 21.905 28.232C20.7771 25.7079 19.6823 23.257 18.5783 20.7856ZM29.8612 20.7948C29.7878 20.8607 29.7332 20.8875 29.7143 20.9295C28.678 23.2481 27.6477 25.5693 26.607 27.8862C26.4647 28.2032 26.5981 28.2366 26.8791 28.2358C28.8326 28.2291 30.7861 28.2246 32.7394 28.2383C33.1632 28.2413 33.1267 28.0945 32.9916 27.8039C32.635 27.036 32.3041 26.2567 31.9591 25.4838C31.2648 23.9282 30.5677 22.3737 29.8612 20.7948Z" fill="#F3FAF6"/>
<path fill-rule="evenodd" clip-rule="evenodd" d="M18.5783 20.7852C19.6824 23.2565 20.7771 25.7073 21.9048 28.2315C21.5213 28.2315 21.219 28.2315 20.9167 28.2315C19.1442 28.2317 17.3717 28.23 15.5992 28.2341C15.35 28.2348 15.1559 28.251 15.3138 27.9016C16.3669 25.5706 17.408 23.2348 18.4548 20.9012C18.468 20.8719 18.5051 20.8527 18.5783 20.7852Z" fill="#04A650"/>
<path fill-rule="evenodd" clip-rule="evenodd" d="M29.8611 20.7939C30.5676 22.3728 31.2646 23.9273 31.9591 25.4829C32.304 26.2558 32.635 27.0352 32.9916 27.803C33.1266 28.0936 33.163 28.2405 32.7394 28.2374C30.7861 28.2236 28.8326 28.2282 26.8791 28.2349C26.5981 28.2358 26.4646 28.2023 26.607 27.8853C27.6477 25.5684 28.6779 23.2472 29.7143 20.9286C29.7331 20.8866 29.7877 20.8598 29.8611 20.7939Z" fill="#04A650"/>
<path d="M57.5988 26.568V31.5194H55.1284V18.0343H59.9919C61.4587 18.0343 62.5974 18.3657 63.4079 19.0283C64.2185 19.691 64.6238 20.6538 64.6238 21.9167C64.6238 23.3296 64.1799 24.4611 63.2921 25.3114C62.4172 26.1491 61.2335 26.568 59.741 26.568H57.5988ZM57.5988 24.7112H59.4708C60.3329 24.7112 60.9826 24.4924 61.4201 24.0548C61.8704 23.6047 62.0956 22.9545 62.0956 22.1042C62.0956 20.6163 61.285 19.8723 59.6638 19.8723H57.5988V24.7112Z" fill="white"/>
<path d="M73.333 26.9243H67.8327C67.8455 27.8621 68.0643 28.5811 68.4889 29.0812C68.9134 29.5689 69.4989 29.8127 70.2451 29.8127C71.1586 29.8127 72.0786 29.5626 73.005 29.0625L73.1401 31.0318C72.2651 31.4944 71.2165 31.7257 69.9942 31.7257C66.9192 31.7257 65.3816 29.9565 65.3816 26.418C65.3816 24.6925 65.7612 23.4171 66.5203 22.5919C67.2923 21.7541 68.3023 21.3353 69.5503 21.3353C72.0721 21.3353 73.333 22.8982 73.333 26.0241V26.9243ZM71.0557 25.4614C71.0557 23.861 70.541 23.0607 69.5117 23.0607C68.9585 23.0607 68.5403 23.2858 68.2573 23.7359C67.9871 24.1861 67.852 24.7612 67.852 25.4614H71.0557Z" fill="white"/>
<path d="M81 22.1605L81.0965 21.5228H83.258V31.3694C83.258 34.2702 81.8813 35.7206 79.1279 35.7206C77.7512 35.7206 76.5482 35.4768 75.5189 34.9891L75.8856 32.9448C76.2844 33.1824 76.7669 33.3762 77.333 33.5262C77.912 33.6888 78.446 33.7701 78.9349 33.7701C80.2601 33.7701 80.9228 32.9323 80.9228 31.2568V30.6567C80.2923 31.3194 79.4817 31.6507 78.491 31.6507C77.3716 31.6507 76.4774 31.2318 75.8084 30.3941C75.1522 29.5438 74.8241 28.281 74.8241 26.6055C74.8241 25.6802 74.9463 24.8363 75.1908 24.0735C75.4481 23.3108 75.8727 22.6669 76.4646 22.1417C77.0693 21.6041 77.8027 21.3353 78.6647 21.3353C79.5268 21.3353 80.3052 21.6103 81 22.1605ZM80.8456 29.0249V23.7922C80.2408 23.3671 79.7005 23.1545 79.2244 23.1545C77.9635 23.1545 77.333 24.3174 77.333 26.643C77.333 28.7436 77.9442 29.7939 79.1665 29.7939C79.7583 29.7939 80.318 29.5376 80.8456 29.0249Z" fill="white"/>
<path d="M86.3633 23.5296L86.0738 21.7854C87.0002 21.4853 88.0616 21.3353 89.2582 21.3353C90.6735 21.3353 91.6771 21.6478 92.269 22.273C92.8608 22.8857 93.1567 24.011 93.1567 25.649V29.175C93.1567 29.7001 93.3497 29.9627 93.7357 29.9627C93.9159 29.9627 94.1217 29.919 94.3533 29.8314L94.527 31.4069C94.0381 31.6069 93.4913 31.707 92.8865 31.707C91.9602 31.707 91.394 31.3256 91.1882 30.5629C90.3519 31.3256 89.3804 31.707 88.2739 31.707C87.2832 31.707 86.5241 31.4131 85.9966 30.8255C85.4819 30.2378 85.2246 29.4876 85.2246 28.5748C85.2246 26.2617 86.5498 25.1051 89.2003 25.1051C89.7278 25.1051 90.2747 25.1676 90.8408 25.2926V24.8613C90.8408 23.6984 90.1653 23.117 88.8143 23.117C88.0809 23.117 87.2639 23.2546 86.3633 23.5296ZM90.8408 29.0812V26.7743C90.4033 26.6243 89.9916 26.5492 89.6056 26.5492C88.2804 26.5492 87.6178 27.1557 87.6178 28.3685C87.6178 28.8561 87.7335 29.2438 87.9651 29.5313C88.1967 29.8064 88.5377 29.944 88.988 29.944C89.6828 29.944 90.3004 29.6564 90.8408 29.0812Z" fill="white"/>
<path d="M101.408 21.9729V18.0343H103.82V31.5194H101.659L101.582 30.6379C100.874 31.3506 100.031 31.707 99.0534 31.707C97.934 31.707 97.0398 31.2756 96.3707 30.4128C95.7145 29.5501 95.3864 28.281 95.3864 26.6055C95.3864 25.6802 95.5151 24.8363 95.7724 24.0735C96.0298 23.2983 96.4608 22.6481 97.0655 22.123C97.6702 21.5978 98.4165 21.3353 99.3043 21.3353C100.076 21.3353 100.777 21.5478 101.408 21.9729ZM101.427 29.1V23.7547C100.822 23.3296 100.289 23.117 99.8253 23.117C98.5387 23.117 97.8954 24.2923 97.8954 26.643C97.8954 27.6933 98.0562 28.4935 98.3779 29.0437C98.6995 29.5939 99.1563 29.8689 99.7481 29.8689C100.34 29.8689 100.9 29.6126 101.427 29.1Z" fill="white"/>
<path d="M106.926 23.5296L106.636 21.7854C107.563 21.4853 108.624 21.3353 109.821 21.3353C111.236 21.3353 112.239 21.6478 112.831 22.273C113.423 22.8857 113.719 24.011 113.719 25.649V29.175C113.719 29.7001 113.912 29.9627 114.298 29.9627C114.478 29.9627 114.684 29.919 114.916 29.8314L115.089 31.4069C114.6 31.6069 114.054 31.707 113.449 31.707C112.523 31.707 111.956 31.3256 111.751 30.5629C110.914 31.3256 109.943 31.707 108.836 31.707C107.846 31.707 107.086 31.4131 106.559 30.8255C106.044 30.2378 105.787 29.4876 105.787 28.5748C105.787 26.2617 107.112 25.1051 109.763 25.1051C110.29 25.1051 110.837 25.1676 111.403 25.2926V24.8613C111.403 23.6984 110.728 23.117 109.377 23.117C108.643 23.117 107.826 23.2546 106.926 23.5296ZM111.403 29.0812V26.7743C110.966 26.6243 110.554 26.5492 110.168 26.5492C108.843 26.5492 108.18 27.1557 108.18 28.3685C108.18 28.8561 108.296 29.2438 108.527 29.5313C108.759 29.8064 109.1 29.944 109.55 29.944C110.245 29.944 110.863 29.6564 111.403 29.0812Z" fill="white"/>
<path d="M116.658 21.5228H119.071V31.5194H116.658V21.5228ZM116.465 18.9158C116.465 18.4907 116.594 18.1593 116.851 17.9218C117.109 17.6842 117.443 17.5654 117.855 17.5654C118.305 17.5654 118.653 17.6842 118.897 17.9218C119.142 18.1468 119.264 18.4782 119.264 18.9158C119.264 19.3534 119.129 19.691 118.859 19.9286C118.601 20.1537 118.267 20.2662 117.855 20.2662C117.43 20.2662 117.089 20.1474 116.832 19.9098C116.588 19.6598 116.465 19.3284 116.465 18.9158Z" fill="white"/>
<path d="M122.173 23.5296L121.884 21.7854C122.81 21.4853 123.871 21.3353 125.068 21.3353C126.483 21.3353 127.487 21.6478 128.079 22.273C128.671 22.8857 128.967 24.011 128.967 25.649V29.175C128.967 29.7001 129.16 29.9627 129.545 29.9627C129.726 29.9627 129.931 29.919 130.163 29.8314L130.337 31.4069C129.848 31.6069 129.301 31.707 128.696 31.707C127.77 31.707 127.204 31.3256 126.998 30.5629C126.162 31.3256 125.19 31.707 124.084 31.707C123.093 31.707 122.334 31.4131 121.806 30.8255C121.292 30.2378 121.034 29.4876 121.034 28.5748C121.034 26.2617 122.36 25.1051 125.01 25.1051C125.538 25.1051 126.084 25.1676 126.651 25.2926V24.8613C126.651 23.6984 125.975 23.117 124.624 23.117C123.891 23.117 123.074 23.2546 122.173 23.5296ZM126.651 29.0812V26.7743C126.213 26.6243 125.801 26.5492 125.415 26.5492C124.09 26.5492 123.428 27.1557 123.428 28.3685C123.428 28.8561 123.543 29.2438 123.775 29.5313C124.007 29.8064 124.347 29.944 124.798 29.944C125.493 29.944 126.11 29.6564 126.651 29.0812Z" fill="white"/>
<path d="M134.106 21.5228L134.183 22.5168C135.109 21.7291 136.126 21.3353 137.232 21.3353C138.892 21.3353 139.831 22.0292 140.05 23.4171C140.102 23.7297 140.127 24.1486 140.127 24.6737V31.5194H137.715V24.9738C137.715 24.5862 137.709 24.3299 137.696 24.2048C137.618 23.5921 137.194 23.2858 136.422 23.2858C135.753 23.2858 135.058 23.5984 134.338 24.2236V31.5194H131.906V21.5228H134.106Z" fill="white"/>
<path d="M147.461 31.5194V18.0343H151.9C153.637 18.0343 154.994 18.5032 155.972 19.441C156.95 20.3787 157.439 21.9604 157.439 24.1861C157.439 25.3364 157.33 26.3492 157.111 27.2244C156.905 28.0872 156.622 28.7874 156.262 29.325C155.914 29.8627 155.477 30.3003 154.949 30.6379C154.422 30.9755 153.875 31.2068 153.309 31.3319C152.743 31.4569 152.106 31.5194 151.398 31.5194H147.461ZM149.931 19.8536V29.7001H151.553C152.672 29.7001 153.495 29.2938 154.023 28.481C154.563 27.6683 154.834 26.3367 154.834 24.4862C154.834 22.8232 154.589 21.6353 154.1 20.9226C153.611 20.2099 152.846 19.8536 151.803 19.8536H149.931Z" fill="white"/>
<path d="M159.668 21.5228H162.08V31.5194H159.668V21.5228ZM159.475 18.9158C159.475 18.4907 159.603 18.1593 159.861 17.9218C160.118 17.6842 160.453 17.5654 160.864 17.5654C161.315 17.5654 161.662 17.6842 161.907 17.9218C162.151 18.1468 162.273 18.4782 162.273 18.9158C162.273 19.3534 162.138 19.691 161.868 19.9286C161.611 20.1537 161.276 20.2662 160.864 20.2662C160.44 20.2662 160.099 20.1474 159.841 19.9098C159.597 19.6598 159.475 19.3284 159.475 18.9158Z" fill="white"/>
<path d="M170.355 22.1605L170.451 21.5228H172.613V31.3694C172.613 34.2702 171.236 35.7206 168.483 35.7206C167.106 35.7206 165.903 35.4768 164.874 34.9891L165.24 32.9448C165.639 33.1824 166.122 33.3762 166.688 33.5262C167.267 33.6888 167.801 33.7701 168.29 33.7701C169.615 33.7701 170.278 32.9323 170.278 31.2568V30.6567C169.647 31.3194 168.837 31.6507 167.846 31.6507C166.726 31.6507 165.832 31.2318 165.163 30.3941C164.507 29.5438 164.179 28.281 164.179 26.6055C164.179 25.6802 164.301 24.8363 164.546 24.0735C164.803 23.3108 165.227 22.6669 165.819 22.1417C166.424 21.6041 167.157 21.3353 168.02 21.3353C168.882 21.3353 169.66 21.6103 170.355 22.1605ZM170.2 29.0249V23.7922C169.596 23.3671 169.055 23.1545 168.579 23.1545C167.318 23.1545 166.688 24.3174 166.688 26.643C166.688 28.7436 167.299 29.7939 168.521 29.7939C169.113 29.7939 169.673 29.5376 170.2 29.0249Z" fill="white"/>
<path d="M175.236 21.5228H177.648V31.5194H175.236V21.5228ZM175.043 18.9158C175.043 18.4907 175.171 18.1593 175.429 17.9218C175.686 17.6842 176.02 17.5654 176.432 17.5654C176.882 17.5654 177.23 17.6842 177.474 17.9218C177.719 18.1468 177.841 18.4782 177.841 18.9158C177.841 19.3534 177.706 19.691 177.436 19.9286C177.178 20.1537 176.844 20.2662 176.432 20.2662C176.008 20.2662 175.667 20.1474 175.409 19.9098C175.165 19.6598 175.043 19.3284 175.043 18.9158Z" fill="white"/>
<path d="M185.189 23.2108H182.873V28.331C182.873 28.6311 182.886 28.8749 182.912 29.0625C182.95 29.25 183.041 29.4188 183.182 29.5689C183.336 29.7189 183.549 29.7939 183.819 29.7939C184.166 29.7939 184.604 29.6751 185.131 29.4376L185.401 31.2381C184.694 31.5632 183.935 31.7257 183.124 31.7257C181.336 31.7257 180.441 30.813 180.441 28.9874V23.2108H179.11V21.5228H180.441V19.8536L182.873 18.7095V21.5228H185.189V23.2108Z" fill="white"/>
<path d="M187.573 23.5296L187.283 21.7854C188.21 21.4853 189.271 21.3353 190.468 21.3353C191.883 21.3353 192.887 21.6478 193.479 22.273C194.071 22.8857 194.366 24.011 194.366 25.649V29.175C194.366 29.7001 194.559 29.9627 194.945 29.9627C195.126 29.9627 195.331 29.919 195.563 29.8314L195.737 31.4069C195.248 31.6069 194.701 31.707 194.096 31.707C193.17 31.707 192.604 31.3256 192.398 30.5629C191.562 31.3256 190.59 31.707 189.484 31.707C188.493 31.707 187.734 31.4131 187.206 30.8255C186.692 30.2378 186.434 29.4876 186.434 28.5748C186.434 26.2617 187.76 25.1051 190.41 25.1051C190.938 25.1051 191.484 25.1676 192.05 25.2926V24.8613C192.05 23.6984 191.375 23.117 190.024 23.117C189.291 23.117 188.474 23.2546 187.573 23.5296ZM192.05 29.0812V26.7743C191.613 26.6243 191.201 26.5492 190.815 26.5492C189.49 26.5492 188.827 27.1557 188.827 28.3685C188.827 28.8561 188.943 29.2438 189.175 29.5313C189.406 29.8064 189.747 29.944 190.198 29.944C190.893 29.944 191.51 29.6564 192.05 29.0812Z" fill="white"/>
<path d="M197.021 28.8374V18.0343H199.433V28.4998C199.433 28.9499 199.504 29.275 199.645 29.4751C199.8 29.6751 200.051 29.7752 200.398 29.7752C200.797 29.7752 201.234 29.6626 201.711 29.4376L202 31.2381C201.305 31.5632 200.546 31.7257 199.723 31.7257C198.719 31.7257 198.018 31.4819 197.619 30.9943C197.22 30.4941 197.021 29.7752 197.021 28.8374Z" fill="white"/>
</svg>
